# xmcd
#
# Track frame offsets: 
#        182
#        15172
#        26407
#        40260
#        53057
#        63245
#        79025
#        94797
#        111705
#        122062
#        133452
#
# Disc length: 2005 seconds
#
# Revision: 2
# Processed by: cddbd v1.5.2PL0 Copyright (c) Steve Scherf et al.
# Submitted via: ExactAudioCopy v1.0b4
#
DISCID=8e07d30b
DTITLE=Nelson Gonçalves - Isto É Brasil
DYEAR=1993
DGENRE=MPB
TTITLE0=Canta Brasil
TTITLE1=Nao Me Digas Adeus
TTITLE2=Aos Pés da Cruz - Emilia
TTITLE3=Ai:Que Saudades da Amelia
TTITLE4=Nega Manhosa
TTITLE5=Carinhoso
TTITLE6=No Rancho Fundo
TTITLE7=Morena, Boca de Ouro
TTITLE8=Atire a Primeira Pedra
TTITLE9=Nao Tenho Lagrimas
TTITLE10=Chora Cavaquinho - O Orvalho Vem Caindo - Agora E Cinza - Abr
TTITLE10=e a Janela 
EXTD=
EXTT0=
EXTT1=
EXTT2=
EXTT3=
EXTT4=
EXTT5=
EXTT6=
EXTT7=
EXTT8=
EXTT9=
EXTT10=
PLAYORDER=
